%TF.GenerationSoftware,KiCad,Pcbnew,9.99.0-4961-ge71b061082*%
%TF.CreationDate,2026-01-22T07:13:39+05:30*%
%TF.ProjectId,TOY,544f592e-6b69-4636-9164-5f7063625858,rev?*%
%TF.SameCoordinates,Original*%
%TF.FileFunction,Copper,L2,Bot*%
%TF.FilePolarity,Positive*%
%FSLAX46Y46*%
G04 Gerber Fmt 4.6, Leading zero omitted, Abs format (unit mm)*
G04 Created by KiCad (PCBNEW 9.99.0-4961-ge71b061082) date 2026-01-22 07:13:39*
%MOMM*%
%LPD*%
G01*
G04 APERTURE LIST*
G04 Aperture macros list*
%AMRoundRect*
0 Rectangle with rounded corners*
0 $1 Rounding radius*
0 $2 $3 $4 $5 $6 $7 $8 $9 X,Y pos of 4 corners*
0 Add a 4 corners polygon primitive as box body*
4,1,4,$2,$3,$4,$5,$6,$7,$8,$9,$2,$3,0*
0 Add four circle primitives for the rounded corners*
1,1,$1+$1,$2,$3*
1,1,$1+$1,$4,$5*
1,1,$1+$1,$6,$7*
1,1,$1+$1,$8,$9*
0 Add four rect primitives between the rounded corners*
20,1,$1+$1,$2,$3,$4,$5,0*
20,1,$1+$1,$4,$5,$6,$7,0*
20,1,$1+$1,$6,$7,$8,$9,0*
20,1,$1+$1,$8,$9,$2,$3,0*%
G04 Aperture macros list end*
%TA.AperFunction,ComponentPad*%
%ADD10C,1.600000*%
%TD*%
%TA.AperFunction,ComponentPad*%
%ADD11R,1.700000X1.700000*%
%TD*%
%TA.AperFunction,ComponentPad*%
%ADD12C,1.700000*%
%TD*%
%TA.AperFunction,ComponentPad*%
%ADD13C,2.000000*%
%TD*%
%TA.AperFunction,ComponentPad*%
%ADD14RoundRect,0.250000X-0.550000X-0.550000X0.550000X-0.550000X0.550000X0.550000X-0.550000X0.550000X0*%
%TD*%
%TA.AperFunction,Conductor*%
%ADD15C,0.300000*%
%TD*%
%TA.AperFunction,Conductor*%
%ADD16C,0.200000*%
%TD*%
G04 APERTURE END LIST*
D10*
%TO.P,1K,1*%
%TO.N,/DIS*%
X161850000Y-89500000D03*
%TO.P,1K,2*%
%TO.N,VCC*%
X149150000Y-89500000D03*
%TD*%
D11*
%TO.P,OUT,1,1_1*%
%TO.N,/TR*%
X153500000Y-111775000D03*
D12*
%TO.P,OUT,2,2_2*%
%TO.N,Net-(R2-Pad1)*%
X153500000Y-109235000D03*
%TD*%
D11*
%TO.P,BATTERY,1,1_1*%
%TO.N,GND*%
X142775000Y-89000000D03*
D12*
%TO.P,BATTERY,2,2_2*%
%TO.N,VCC*%
X140235000Y-89000000D03*
%TD*%
D10*
%TO.P,10K,1*%
%TO.N,Net-(R2-Pad1)*%
X162000000Y-105350000D03*
%TO.P,10K,2*%
%TO.N,/DIS*%
X162000000Y-92650000D03*
%TD*%
D13*
%TO.P,C1,1*%
%TO.N,/TR*%
X144000000Y-103500000D03*
%TO.P,C1,2*%
%TO.N,GND*%
X144000000Y-93500000D03*
%TD*%
D11*
%TO.P,BUZZER,1,1_1*%
%TO.N,Net-(100uf1-Pad2)*%
X158500000Y-109500000D03*
D12*
%TO.P,BUZZER,2,2_2*%
%TO.N,GND*%
X161040000Y-109500000D03*
%TD*%
D14*
%TO.P,IC 555,1,GND_1*%
%TO.N,GND*%
X148695000Y-95380000D03*
D10*
%TO.P,IC 555,2,TRIG_2*%
%TO.N,Net-(U1-THRES)*%
X148695000Y-97920000D03*
%TO.P,IC 555,3,OUT_3*%
%TO.N,/OUT*%
X148695000Y-100460000D03*
%TO.P,IC 555,4,~{RST}_4*%
%TO.N,VCC*%
X148695000Y-103000000D03*
%TO.P,IC 555,5,CONT_5*%
%TO.N,unconnected-(U1-CONT-Pad5)*%
X156315000Y-103000000D03*
%TO.P,IC 555,6,THRES_6*%
%TO.N,Net-(U1-THRES)*%
X156315000Y-100460000D03*
%TO.P,IC 555,7,DISCH_7*%
%TO.N,/DIS*%
X156315000Y-97920000D03*
%TO.P,IC 555,8,VCC_8*%
%TO.N,VCC*%
X156315000Y-95380000D03*
%TD*%
D14*
%TO.P,100uf1,1*%
%TO.N,/OUT*%
X142500000Y-111000000D03*
D10*
%TO.P,100uf1,2*%
%TO.N,Net-(100uf1-Pad2)*%
X145000000Y-111000000D03*
%TD*%
%TO.N,/DIS*%
D15*
X156730000Y-97920000D02*
X156315000Y-97920000D01*
X162000000Y-92650000D02*
X156730000Y-97920000D01*
%TO.N,Net-(U1-THRES)*%
D16*
X153775000Y-97920000D02*
X156315000Y-100460000D01*
X148695000Y-97920000D02*
X153775000Y-97920000D01*
%TD*%
%TA.AperFunction,Conductor*%
%TO.N,GND*%
G36*
X164942539Y-85940185D02*
G01*
X164988294Y-85992989D01*
X164999500Y-86044500D01*
X164999500Y-116375500D01*
X164979815Y-116442539D01*
X164927011Y-116488294D01*
X164875500Y-116499500D01*
X139124500Y-116499500D01*
X139057461Y-116479815D01*
X139011706Y-116427011D01*
X139000500Y-116375500D01*
X139000500Y-110399983D01*
X141199500Y-110399983D01*
X141199500Y-111600001D01*
X141199501Y-111600018D01*
X141210000Y-111702796D01*
X141210001Y-111702799D01*
X141239347Y-111791358D01*
X141265186Y-111869334D01*
X141357288Y-112018656D01*
X141481344Y-112142712D01*
X141630666Y-112234814D01*
X141797203Y-112289999D01*
X141899991Y-112300500D01*
X143100008Y-112300499D01*
X143202797Y-112289999D01*
X143369334Y-112234814D01*
X143518656Y-112142712D01*
X143642712Y-112018656D01*
X143734814Y-111869334D01*
X143749426Y-111825237D01*
X143789195Y-111767796D01*
X143853711Y-111740972D01*
X143922487Y-111753286D01*
X143967448Y-111791358D01*
X144008032Y-111847217D01*
X144152786Y-111991971D01*
X144307749Y-112104556D01*
X144318390Y-112112287D01*
X144434607Y-112171503D01*
X144500776Y-112205218D01*
X144500778Y-112205218D01*
X144500781Y-112205220D01*
X144591856Y-112234812D01*
X144695465Y-112268477D01*
X144796557Y-112284488D01*
X144897648Y-112300500D01*
X144897649Y-112300500D01*
X145102351Y-112300500D01*
X145102352Y-112300500D01*
X145304534Y-112268477D01*
X145499219Y-112205220D01*
X145681610Y-112112287D01*
X145810482Y-112018657D01*
X145847213Y-111991971D01*
X145847215Y-111991968D01*
X145847219Y-111991966D01*
X145991966Y-111847219D01*
X145991968Y-111847215D01*
X145991971Y-111847213D01*
X146096892Y-111702799D01*
X146112287Y-111681610D01*
X146205220Y-111499219D01*
X146268477Y-111304534D01*
X146300500Y-111102352D01*
X146300500Y-110897648D01*
X146277288Y-110751095D01*
X146268477Y-110695465D01*
X146205218Y-110500776D01*
X146153865Y-110399991D01*
X146112287Y-110318390D01*
X146071112Y-110261717D01*
X145991971Y-110152786D01*
X145847213Y-110008028D01*
X145681613Y-109887715D01*
X145681612Y-109887714D01*
X145681610Y-109887713D01*
X145614569Y-109853554D01*
X145499223Y-109794781D01*
X145304534Y-109731522D01*
X145129995Y-109703878D01*
X145102352Y-109699500D01*
X144897648Y-109699500D01*
X144873329Y-109703351D01*
X144695465Y-109731522D01*
X144500776Y-109794781D01*
X144318386Y-109887715D01*
X144152786Y-110008028D01*
X144008032Y-110152782D01*
X144008031Y-110152784D01*
X143967447Y-110208642D01*
X143912117Y-110251307D01*
X143842503Y-110257285D01*
X143780709Y-110224678D01*
X143749425Y-110174760D01*
X143734814Y-110130666D01*
X143642712Y-109981344D01*
X143518656Y-109857288D01*
X143369334Y-109765186D01*
X143202797Y-109710001D01*
X143202795Y-109710000D01*
X143100010Y-109699500D01*
X141899998Y-109699500D01*
X141899981Y-109699501D01*
X141797203Y-109710000D01*
X141797200Y-109710001D01*
X141630668Y-109765185D01*
X141630663Y-109765187D01*
X141481342Y-109857289D01*
X141357289Y-109981342D01*
X141265187Y-110130663D01*
X141265185Y-110130668D01*
X141257858Y-110152781D01*
X141210001Y-110297203D01*
X141210001Y-110297204D01*
X141210000Y-110297204D01*
X141199500Y-110399983D01*
X139000500Y-110399983D01*
X139000500Y-109128713D01*
X152149500Y-109128713D01*
X152149500Y-109341286D01*
X152174637Y-109499999D01*
X152182754Y-109551243D01*
X152241330Y-109731522D01*
X152248444Y-109753414D01*
X152344951Y-109942820D01*
X152469890Y-110114786D01*
X152583430Y-110228326D01*
X152616915Y-110289649D01*
X152611931Y-110359341D01*
X152570059Y-110415274D01*
X152539083Y-110432189D01*
X152407669Y-110481203D01*
X152407664Y-110481206D01*
X152292455Y-110567452D01*
X152292452Y-110567455D01*
X152206206Y-110682664D01*
X152206202Y-110682671D01*
X152155908Y-110817517D01*
X152149501Y-110877116D01*
X152149501Y-110877123D01*
X152149500Y-110877135D01*
X152149500Y-112672870D01*
X152149501Y-112672876D01*
X152155908Y-112732483D01*
X152206202Y-112867328D01*
X152206206Y-112867335D01*
X152292452Y-112982544D01*
X152292455Y-112982547D01*
X152407664Y-113068793D01*
X152407671Y-113068797D01*
X152542517Y-113119091D01*
X152542516Y-113119091D01*
X152549444Y-113119835D01*
X152602127Y-113125500D01*
X154397872Y-113125499D01*
X154457483Y-113119091D01*
X154592331Y-113068796D01*
X154707546Y-112982546D01*
X154793796Y-112867331D01*
X154844091Y-112732483D01*
X154850500Y-112672873D01*
X154850499Y-110877128D01*
X154844091Y-110817517D01*
X154819317Y-110751095D01*
X154793797Y-110682671D01*
X154793793Y-110682664D01*
X154707547Y-110567455D01*
X154707544Y-110567452D01*
X154592335Y-110481206D01*
X154592328Y-110481202D01*
X154460917Y-110432189D01*
X154404983Y-110390318D01*
X154380566Y-110324853D01*
X154395418Y-110256580D01*
X154416563Y-110228332D01*
X154530104Y-110114792D01*
X154655051Y-109942816D01*
X154751557Y-109753412D01*
X154817246Y-109551243D01*
X154850500Y-109341287D01*
X154850500Y-109128713D01*
X154817246Y-108918757D01*
X154751557Y-108716588D01*
X154693240Y-108602135D01*
X157149500Y-108602135D01*
X157149500Y-110397870D01*
X157149501Y-110397876D01*
X157155908Y-110457483D01*
X157206202Y-110592328D01*
X157206206Y-110592335D01*
X157292452Y-110707544D01*
X157292455Y-110707547D01*
X157407664Y-110793793D01*
X157407671Y-110793797D01*
X157542517Y-110844091D01*
X157542516Y-110844091D01*
X157549444Y-110844835D01*
X157602127Y-110850500D01*
X159397872Y-110850499D01*
X159457483Y-110844091D01*
X159592331Y-110793796D01*
X159707546Y-110707546D01*
X159793796Y-110592331D01*
X159844091Y-110457483D01*
X159850500Y-110397873D01*
X159850499Y-110373979D01*
X159853330Y-110360963D01*
X159863940Y-110341525D01*
X159870179Y-110320275D01*
X159886803Y-110299643D01*
X159886808Y-110299636D01*
X159886811Y-110299634D01*
X159886818Y-110299626D01*
X160557037Y-109629408D01*
X160574075Y-109692993D01*
X160639901Y-109807007D01*
X160732993Y-109900099D01*
X160847007Y-109965925D01*
X160910590Y-109982962D01*
X160278282Y-110615269D01*
X160278282Y-110615270D01*
X160332449Y-110654624D01*
X160521782Y-110751095D01*
X160723870Y-110816757D01*
X160933754Y-110850000D01*
X161146246Y-110850000D01*
X161356127Y-110816757D01*
X161356130Y-110816757D01*
X161558217Y-110751095D01*
X161747554Y-110654622D01*
X161801716Y-110615270D01*
X161801717Y-110615270D01*
X161169408Y-109982962D01*
X161232993Y-109965925D01*
X161347007Y-109900099D01*
X161440099Y-109807007D01*
X161505925Y-109692993D01*
X161522962Y-109629408D01*
X162155270Y-110261717D01*
X162155270Y-110261716D01*
X162194622Y-110207554D01*
X162291095Y-110018217D01*
X162356757Y-109816130D01*
X162356757Y-109816127D01*
X162390000Y-109606246D01*
X162390000Y-109393753D01*
X162356757Y-109183872D01*
X162356757Y-109183869D01*
X162291095Y-108981782D01*
X162194624Y-108792449D01*
X162155270Y-108738282D01*
X162155269Y-108738282D01*
X161522962Y-109370590D01*
X161505925Y-109307007D01*
X161440099Y-109192993D01*
X161347007Y-109099901D01*
X161232993Y-109034075D01*
X161169409Y-109017037D01*
X161801716Y-108384728D01*
X161747550Y-108345375D01*
X161558217Y-108248904D01*
X161356129Y-108183242D01*
X161146246Y-108150000D01*
X160933754Y-108150000D01*
X160723872Y-108183242D01*
X160723869Y-108183242D01*
X160521782Y-108248904D01*
X160332439Y-108345380D01*
X160278282Y-108384727D01*
X160278282Y-108384728D01*
X160910591Y-109017037D01*
X160847007Y-109034075D01*
X160732993Y-109099901D01*
X160639901Y-109192993D01*
X160574075Y-109307007D01*
X160557037Y-109370591D01*
X159886818Y-108700372D01*
X159853333Y-108639049D01*
X159853330Y-108639036D01*
X159850499Y-108626015D01*
X159850499Y-108602128D01*
X159844091Y-108542517D01*
X159815926Y-108467002D01*
X159793798Y-108407673D01*
X159793793Y-108407664D01*
X159707547Y-108292455D01*
X159707544Y-108292452D01*
X159592335Y-108206206D01*
X159592328Y-108206202D01*
X159457482Y-108155908D01*
X159457483Y-108155908D01*
X159397883Y-108149501D01*
X159397881Y-108149500D01*
X159397873Y-108149500D01*
X159397864Y-108149500D01*
X157602129Y-108149500D01*
X157602123Y-108149501D01*
X157542516Y-108155908D01*
X157407671Y-108206202D01*
X157407664Y-108206206D01*
X157292455Y-108292452D01*
X157292452Y-108292455D01*
X157206206Y-108407664D01*
X157206202Y-108407671D01*
X157155908Y-108542517D01*
X157149501Y-108602116D01*
X157149500Y-108602135D01*
X154693240Y-108602135D01*
X154655051Y-108527184D01*
X154611327Y-108467002D01*
X154530109Y-108355213D01*
X154379786Y-108204890D01*
X154207820Y-108079951D01*
X154018414Y-107983444D01*
X154018413Y-107983443D01*
X154018412Y-107983443D01*
X153816243Y-107917754D01*
X153816241Y-107917753D01*
X153816240Y-107917753D01*
X153654957Y-107892208D01*
X153606287Y-107884500D01*
X153393713Y-107884500D01*
X153345042Y-107892208D01*
X153183760Y-107917753D01*
X152981585Y-107983444D01*
X152792179Y-108079951D01*
X152620213Y-108204890D01*
X152469890Y-108355213D01*
X152344951Y-108527179D01*
X152248444Y-108716585D01*
X152182753Y-108918760D01*
X152149500Y-109128713D01*
X139000500Y-109128713D01*
X139000500Y-105247648D01*
X160699500Y-105247648D01*
X160699500Y-105452351D01*
X160731522Y-105654534D01*
X160794781Y-105849223D01*
X160887715Y-106031613D01*
X161008028Y-106197213D01*
X161152786Y-106341971D01*
X161307749Y-106454556D01*
X161318390Y-106462287D01*
X161434607Y-106521503D01*
X161500776Y-106555218D01*
X161500778Y-106555218D01*
X161500781Y-106555220D01*
X161605137Y-106589127D01*
X161695465Y-106618477D01*
X161796557Y-106634488D01*
X161897648Y-106650500D01*
X161897649Y-106650500D01*
X162102351Y-106650500D01*
X162102352Y-106650500D01*
X162304534Y-106618477D01*
X162499219Y-106555220D01*
X162681610Y-106462287D01*
X162774590Y-106394732D01*
X162847213Y-106341971D01*
X162847215Y-106341968D01*
X162847219Y-106341966D01*
X162991966Y-106197219D01*
X162991968Y-106197215D01*
X162991971Y-106197213D01*
X163044732Y-106124590D01*
X163112287Y-106031610D01*
X163205220Y-105849219D01*
X163268477Y-105654534D01*
X163300500Y-105452352D01*
X163300500Y-105247648D01*
X163268477Y-105045466D01*
X163205220Y-104850781D01*
X163205218Y-104850778D01*
X163205218Y-104850776D01*
X163170858Y-104783342D01*
X163112287Y-104668390D01*
X163104556Y-104657749D01*
X162991971Y-104502786D01*
X162847213Y-104358028D01*
X162681613Y-104237715D01*
X162681612Y-104237714D01*
X162681610Y-104237713D01*
X162617835Y-104205218D01*
X162499223Y-104144781D01*
X162304534Y-104081522D01*
X162129995Y-104053878D01*
X162102352Y-104049500D01*
X161897648Y-104049500D01*
X161873329Y-104053351D01*
X161695465Y-104081522D01*
X161500776Y-104144781D01*
X161318386Y-104237715D01*
X161152786Y-104358028D01*
X161008028Y-104502786D01*
X160887715Y-104668386D01*
X160794781Y-104850776D01*
X160731522Y-105045465D01*
X160699500Y-105247648D01*
X139000500Y-105247648D01*
X139000500Y-103381902D01*
X142499500Y-103381902D01*
X142499500Y-103618097D01*
X142536446Y-103851368D01*
X142609433Y-104075996D01*
X142675276Y-104205218D01*
X142716657Y-104286433D01*
X142855483Y-104477510D01*
X143022490Y-104644517D01*
X143213567Y-104783343D01*
X143312991Y-104834002D01*
X143424003Y-104890566D01*
X143424005Y-104890566D01*
X143424008Y-104890568D01*
X143544412Y-104929689D01*
X143648631Y-104963553D01*
X143881903Y-105000500D01*
X143881908Y-105000500D01*
X144118097Y-105000500D01*
X144351368Y-104963553D01*
X144575992Y-104890568D01*
X144786433Y-104783343D01*
X144977510Y-104644517D01*
X145144517Y-104477510D01*
X145283343Y-104286433D01*
X145390568Y-104075992D01*
X145463553Y-103851368D01*
X145464211Y-103847213D01*
X145500500Y-103618097D01*
X145500500Y-103381902D01*
X145463553Y-103148631D01*
X145390566Y-102924003D01*
X145283342Y-102713566D01*
X145144517Y-102522490D01*
X144977510Y-102355483D01*
X144786433Y-102216657D01*
X144575996Y-102109433D01*
X144351368Y-102036446D01*
X144118097Y-101999500D01*
X144118092Y-101999500D01*
X143881908Y-101999500D01*
X143881903Y-101999500D01*
X143648631Y-102036446D01*
X143424003Y-102109433D01*
X143213566Y-102216657D01*
X143104550Y-102295862D01*
X143022490Y-102355483D01*
X143022488Y-102355485D01*
X143022487Y-102355485D01*
X142855485Y-102522487D01*
X142855485Y-102522488D01*
X142855483Y-102522490D01*
X142795862Y-102604550D01*
X142716657Y-102713566D01*
X142609433Y-102924003D01*
X142536446Y-103148631D01*
X142499500Y-103381902D01*
X139000500Y-103381902D01*
X139000500Y-97817648D01*
X147394500Y-97817648D01*
X147394500Y-98022351D01*
X147426522Y-98224534D01*
X147489781Y-98419223D01*
X147582715Y-98601613D01*
X147703028Y-98767213D01*
X147847786Y-98911971D01*
X148002749Y-99024556D01*
X148013390Y-99032287D01*
X148104840Y-99078883D01*
X148106080Y-99079515D01*
X148156876Y-99127490D01*
X148173671Y-99195311D01*
X148151134Y-99261446D01*
X148106080Y-99300485D01*
X148013386Y-99347715D01*
X147847786Y-99468028D01*
X147703028Y-99612786D01*
X147582715Y-99778386D01*
X147489781Y-99960776D01*
X147426522Y-100155465D01*
X147394500Y-100357648D01*
X147394500Y-100562351D01*
X147426522Y-100764534D01*
X147489781Y-100959223D01*
X147582715Y-101141613D01*
X147703028Y-101307213D01*
X147847786Y-101451971D01*
X148002749Y-101564556D01*
X148013390Y-101572287D01*
X148104840Y-101618883D01*
X148106080Y-101619515D01*
X148156876Y-101667490D01*
X148173671Y-101735311D01*
X148151134Y-101801446D01*
X148106080Y-101840485D01*
X148013386Y-101887715D01*
X147847786Y-102008028D01*
X147703028Y-102152786D01*
X147582715Y-102318386D01*
X147489781Y-102500776D01*
X147426522Y-102695465D01*
X147394500Y-102897648D01*
X147394500Y-103102351D01*
X147426522Y-103304534D01*
X147489781Y-103499223D01*
X147582715Y-103681613D01*
X147703028Y-103847213D01*
X147847786Y-103991971D01*
X148002749Y-104104556D01*
X148013390Y-104112287D01*
X148129607Y-104171503D01*
X148195776Y-104205218D01*
X148195778Y-104205218D01*
X148195781Y-104205220D01*
X148295784Y-104237713D01*
X148390465Y-104268477D01*
X148491557Y-104284488D01*
X148592648Y-104300500D01*
X148592649Y-104300500D01*
X148797351Y-104300500D01*
X148797352Y-104300500D01*
X148999534Y-104268477D01*
X149194219Y-104205220D01*
X149376610Y-104112287D01*
X149469590Y-104044732D01*
X149542213Y-103991971D01*
X149542215Y-103991968D01*
X149542219Y-103991966D01*
X149686966Y-103847219D01*
X149686968Y-103847215D01*
X149686971Y-103847213D01*
X149739732Y-103774590D01*
X149807287Y-103681610D01*
X149900220Y-103499219D01*
X149963477Y-103304534D01*
X149995500Y-103102352D01*
X149995500Y-102897648D01*
X149963477Y-102695466D01*
X149900220Y-102500781D01*
X149900218Y-102500778D01*
X149900218Y-102500776D01*
X149866503Y-102434607D01*
X149807287Y-102318390D01*
X149799556Y-102307749D01*
X149686971Y-102152786D01*
X149542213Y-102008028D01*
X149376614Y-101887715D01*
X149370006Y-101884348D01*
X149283917Y-101840483D01*
X149233123Y-101792511D01*
X149216328Y-101724690D01*
X149238865Y-101658555D01*
X149283917Y-101619516D01*
X149376610Y-101572287D01*
X149397770Y-101556913D01*
X149542213Y-101451971D01*
X149542215Y-101451968D01*
X149542219Y-101451966D01*
X149686966Y-101307219D01*
X149686968Y-101307215D01*
X149686971Y-101307213D01*
X149739732Y-101234590D01*
X149807287Y-101141610D01*
X149900220Y-100959219D01*
X149963477Y-100764534D01*
X149995500Y-100562352D01*
X149995500Y-100357648D01*
X149963477Y-100155466D01*
X149900220Y-99960781D01*
X149900218Y-99960778D01*
X149900218Y-99960776D01*
X149866503Y-99894607D01*
X149807287Y-99778390D01*
X149799556Y-99767749D01*
X149686971Y-99612786D01*
X149542213Y-99468028D01*
X149376614Y-99347715D01*
X149370006Y-99344348D01*
X149283917Y-99300483D01*
X149233123Y-99252511D01*
X149216328Y-99184690D01*
X149238865Y-99118555D01*
X149283917Y-99079516D01*
X149376610Y-99032287D01*
X149397770Y-99016913D01*
X149542213Y-98911971D01*
X149542215Y-98911968D01*
X149542219Y-98911966D01*
X149686966Y-98767219D01*
X149686968Y-98767215D01*
X149686971Y-98767213D01*
X149807284Y-98601614D01*
X149807285Y-98601613D01*
X149807287Y-98601610D01*
X149814117Y-98588204D01*
X149862091Y-98537409D01*
X149924602Y-98520500D01*
X153474903Y-98520500D01*
X153541942Y-98540185D01*
X153562584Y-98556819D01*
X155020922Y-100015157D01*
X155054407Y-100076480D01*
X155051173Y-100141155D01*
X155046522Y-100155468D01*
X155014500Y-100357648D01*
X155014500Y-100562351D01*
X155046522Y-100764534D01*
X155109781Y-100959223D01*
X155202715Y-101141613D01*
X155323028Y-101307213D01*
X155467786Y-101451971D01*
X155622749Y-101564556D01*
X155633390Y-101572287D01*
X155724840Y-101618883D01*
X155726080Y-101619515D01*
X155776876Y-101667490D01*
X155793671Y-101735311D01*
X155771134Y-101801446D01*
X155726080Y-101840485D01*
X155633386Y-101887715D01*
X155467786Y-102008028D01*
X155323028Y-102152786D01*
X155202715Y-102318386D01*
X155109781Y-102500776D01*
X155046522Y-102695465D01*
X155014500Y-102897648D01*
X155014500Y-103102351D01*
X155046522Y-103304534D01*
X155109781Y-103499223D01*
X155202715Y-103681613D01*
X155323028Y-103847213D01*
X155467786Y-103991971D01*
X155622749Y-104104556D01*
X155633390Y-104112287D01*
X155749607Y-104171503D01*
X155815776Y-104205218D01*
X155815778Y-104205218D01*
X155815781Y-104205220D01*
X155915784Y-104237713D01*
X156010465Y-104268477D01*
X156111557Y-104284488D01*
X156212648Y-104300500D01*
X156212649Y-104300500D01*
X156417351Y-104300500D01*
X156417352Y-104300500D01*
X156619534Y-104268477D01*
X156814219Y-104205220D01*
X156996610Y-104112287D01*
X157089590Y-104044732D01*
X157162213Y-103991971D01*
X157162215Y-103991968D01*
X157162219Y-103991966D01*
X157306966Y-103847219D01*
X157306968Y-103847215D01*
X157306971Y-103847213D01*
X157359732Y-103774590D01*
X157427287Y-103681610D01*
X157520220Y-103499219D01*
X157583477Y-103304534D01*
X157615500Y-103102352D01*
X157615500Y-102897648D01*
X157583477Y-102695466D01*
X157520220Y-102500781D01*
X157520218Y-102500778D01*
X157520218Y-102500776D01*
X157486503Y-102434607D01*
X157427287Y-102318390D01*
X157419556Y-102307749D01*
X157306971Y-102152786D01*
X157162213Y-102008028D01*
X156996614Y-101887715D01*
X156990006Y-101884348D01*
X156903917Y-101840483D01*
X156853123Y-101792511D01*
X156836328Y-101724690D01*
X156858865Y-101658555D01*
X156903917Y-101619516D01*
X156996610Y-101572287D01*
X157017770Y-101556913D01*
X157162213Y-101451971D01*
X157162215Y-101451968D01*
X157162219Y-101451966D01*
X157306966Y-101307219D01*
X157306968Y-101307215D01*
X157306971Y-101307213D01*
X157359732Y-101234590D01*
X157427287Y-101141610D01*
X157520220Y-100959219D01*
X157583477Y-100764534D01*
X157615500Y-100562352D01*
X157615500Y-100357648D01*
X157583477Y-100155466D01*
X157520220Y-99960781D01*
X157520218Y-99960778D01*
X157520218Y-99960776D01*
X157486503Y-99894607D01*
X157427287Y-99778390D01*
X157419556Y-99767749D01*
X157306971Y-99612786D01*
X157162213Y-99468028D01*
X156996614Y-99347715D01*
X156990006Y-99344348D01*
X156903917Y-99300483D01*
X156853123Y-99252511D01*
X156836328Y-99184690D01*
X156858865Y-99118555D01*
X156903917Y-99079516D01*
X156996610Y-99032287D01*
X157017770Y-99016913D01*
X157162213Y-98911971D01*
X157162215Y-98911968D01*
X157162219Y-98911966D01*
X157306966Y-98767219D01*
X157306968Y-98767215D01*
X157306971Y-98767213D01*
X157359732Y-98694590D01*
X157427287Y-98601610D01*
X157520220Y-98419219D01*
X157583477Y-98224534D01*
X157615500Y-98022352D01*
X157615500Y-98005807D01*
X157635185Y-97938768D01*
X157651814Y-97918131D01*
X161612809Y-93957135D01*
X161674130Y-93923652D01*
X161719886Y-93922345D01*
X161816719Y-93937681D01*
X161897648Y-93950500D01*
X161897649Y-93950500D01*
X162102351Y-93950500D01*
X162102352Y-93950500D01*
X162304534Y-93918477D01*
X162499219Y-93855220D01*
X162681610Y-93762287D01*
X162776986Y-93692993D01*
X162847213Y-93641971D01*
X162847215Y-93641968D01*
X162847219Y-93641966D01*
X162991966Y-93497219D01*
X162991968Y-93497215D01*
X162991971Y-93497213D01*
X163075715Y-93381947D01*
X163112287Y-93331610D01*
X163205220Y-93149219D01*
X163268477Y-92954534D01*
X163300500Y-92752352D01*
X163300500Y-92547648D01*
X163268477Y-92345466D01*
X163205220Y-92150781D01*
X163205218Y-92150778D01*
X163205218Y-92150776D01*
X163147212Y-92036934D01*
X163112287Y-91968390D01*
X163104556Y-91957749D01*
X162991971Y-91802786D01*
X162847213Y-91658028D01*
X162681613Y-91537715D01*
X162681612Y-91537714D01*
X162681610Y-91537713D01*
X162624653Y-91508691D01*
X162499223Y-91444781D01*
X162304534Y-91381522D01*
X162129995Y-91353878D01*
X162102352Y-91349500D01*
X161897648Y-91349500D01*
X161873329Y-91353351D01*
X161695465Y-91381522D01*
X161500776Y-91444781D01*
X161318386Y-91537715D01*
X161152786Y-91658028D01*
X161008028Y-91802786D01*
X160887715Y-91968386D01*
X160794781Y-92150776D01*
X160731522Y-92345465D01*
X160699500Y-92547648D01*
X160699500Y-92752351D01*
X160727654Y-92930111D01*
X160718699Y-92999405D01*
X160692862Y-93037190D01*
X157726311Y-96003741D01*
X157664988Y-96037226D01*
X157595296Y-96032242D01*
X157539363Y-95990370D01*
X157514946Y-95924906D01*
X157520698Y-95877747D01*
X157583477Y-95684534D01*
X157615500Y-95482352D01*
X157615500Y-95277648D01*
X157607257Y-95225606D01*
X157583477Y-95075465D01*
X157546956Y-94963065D01*
X157520220Y-94880781D01*
X157520218Y-94880778D01*
X157520218Y-94880776D01*
X157470354Y-94782914D01*
X157427287Y-94698390D01*
X157411966Y-94677302D01*
X157306971Y-94532786D01*
X157162213Y-94388028D01*
X156996613Y-94267715D01*
X156996612Y-94267714D01*
X156996610Y-94267713D01*
X156937675Y-94237684D01*
X156814223Y-94174781D01*
X156619534Y-94111522D01*
X156444995Y-94083878D01*
X156417352Y-94079500D01*
X156212648Y-94079500D01*
X156188329Y-94083351D01*
X156010465Y-94111522D01*
X155815776Y-94174781D01*
X155633386Y-94267715D01*
X155467786Y-94388028D01*
X155323028Y-94532786D01*
X155202715Y-94698386D01*
X155109781Y-94880776D01*
X155046522Y-95075465D01*
X155014500Y-95277648D01*
X155014500Y-95482351D01*
X155046522Y-95684534D01*
X155109781Y-95879223D01*
X155202715Y-96061613D01*
X155323028Y-96227213D01*
X155467786Y-96371971D01*
X155622749Y-96484556D01*
X155633390Y-96492287D01*
X155724840Y-96538883D01*
X155726080Y-96539515D01*
X155776876Y-96587490D01*
X155793671Y-96655311D01*
X155771134Y-96721446D01*
X155726080Y-96760485D01*
X155633386Y-96807715D01*
X155467786Y-96928028D01*
X155323028Y-97072786D01*
X155202715Y-97238386D01*
X155109781Y-97420776D01*
X155046522Y-97615465D01*
X155014500Y-97817648D01*
X155014500Y-98010903D01*
X154994815Y-98077942D01*
X154942011Y-98123697D01*
X154872853Y-98133641D01*
X154809297Y-98104616D01*
X154802819Y-98098584D01*
X154262590Y-97558355D01*
X154262588Y-97558352D01*
X154143717Y-97439481D01*
X154143716Y-97439480D01*
X154056904Y-97389360D01*
X154056904Y-97389359D01*
X154056900Y-97389358D01*
X154006785Y-97360423D01*
X153854057Y-97319499D01*
X153695943Y-97319499D01*
X153688347Y-97319499D01*
X153688331Y-97319500D01*
X149924602Y-97319500D01*
X149857563Y-97299815D01*
X149814117Y-97251795D01*
X149807284Y-97238385D01*
X149686971Y-97072786D01*
X149542217Y-96928032D01*
X149542212Y-96928028D01*
X149448051Y-96859616D01*
X149405385Y-96804286D01*
X149399406Y-96734673D01*
X149432012Y-96672878D01*
X149481933Y-96641592D01*
X149564117Y-96614359D01*
X149564124Y-96614356D01*
X149713345Y-96522315D01*
X149837315Y-96398345D01*
X149929356Y-96249124D01*
X149929358Y-96249119D01*
X149984505Y-96082697D01*
X149984506Y-96082690D01*
X149994999Y-95979986D01*
X149995000Y-95979973D01*
X149995000Y-95630000D01*
X149010686Y-95630000D01*
X149015080Y-95625606D01*
X149067741Y-95534394D01*
X149095000Y-95432661D01*
X149095000Y-95327339D01*
X149067741Y-95225606D01*
X149015080Y-95134394D01*
X149010686Y-95130000D01*
X149994999Y-95130000D01*
X149994999Y-94780028D01*
X149994998Y-94780013D01*
X149984505Y-94677302D01*
X149929358Y-94510880D01*
X149929356Y-94510875D01*
X149837315Y-94361654D01*
X149713345Y-94237684D01*
X149564124Y-94145643D01*
X149564119Y-94145641D01*
X149397697Y-94090494D01*
X149397690Y-94090493D01*
X149294986Y-94080000D01*
X148945000Y-94080000D01*
X148945000Y-95064314D01*
X148940606Y-95059920D01*
X148849394Y-95007259D01*
X148747661Y-94980000D01*
X148642339Y-94980000D01*
X148540606Y-95007259D01*
X148449394Y-95059920D01*
X148445000Y-95064314D01*
X148445000Y-94080000D01*
X148095028Y-94080000D01*
X148095012Y-94080001D01*
X147992302Y-94090494D01*
X147825880Y-94145641D01*
X147825875Y-94145643D01*
X147676654Y-94237684D01*
X147552684Y-94361654D01*
X147460643Y-94510875D01*
X147460641Y-94510880D01*
X147405494Y-94677302D01*
X147405493Y-94677309D01*
X147395000Y-94780013D01*
X147395000Y-95130000D01*
X148379314Y-95130000D01*
X148374920Y-95134394D01*
X148322259Y-95225606D01*
X148295000Y-95327339D01*
X148295000Y-95432661D01*
X148322259Y-95534394D01*
X148374920Y-95625606D01*
X148379314Y-95630000D01*
X147395001Y-95630000D01*
X147395001Y-95979986D01*
X147405494Y-96082697D01*
X147460641Y-96249119D01*
X147460643Y-96249124D01*
X147552684Y-96398345D01*
X147676654Y-96522315D01*
X147825875Y-96614356D01*
X147825882Y-96614359D01*
X147908067Y-96641592D01*
X147965512Y-96681364D01*
X147992336Y-96745880D01*
X147980021Y-96814656D01*
X147941949Y-96859616D01*
X147847787Y-96928028D01*
X147847782Y-96928032D01*
X147703028Y-97072786D01*
X147582715Y-97238386D01*
X147489781Y-97420776D01*
X147426522Y-97615465D01*
X147394500Y-97817648D01*
X139000500Y-97817648D01*
X139000500Y-93381947D01*
X142500000Y-93381947D01*
X142500000Y-93618052D01*
X142536934Y-93851247D01*
X142609897Y-94075802D01*
X142717087Y-94286174D01*
X142777338Y-94369104D01*
X142777340Y-94369105D01*
X143517037Y-93629408D01*
X143534075Y-93692993D01*
X143599901Y-93807007D01*
X143692993Y-93900099D01*
X143807007Y-93965925D01*
X143870590Y-93982962D01*
X143130893Y-94722658D01*
X143213828Y-94782914D01*
X143424197Y-94890102D01*
X143648752Y-94963065D01*
X143648751Y-94963065D01*
X143881948Y-95000000D01*
X144118052Y-95000000D01*
X144351247Y-94963065D01*
X144575802Y-94890102D01*
X144786163Y-94782918D01*
X144786169Y-94782914D01*
X144869105Y-94722658D01*
X144129408Y-93982962D01*
X144192993Y-93965925D01*
X144307007Y-93900099D01*
X144400099Y-93807007D01*
X144465925Y-93692993D01*
X144482962Y-93629409D01*
X145222658Y-94369105D01*
X145222658Y-94369104D01*
X145282914Y-94286169D01*
X145282918Y-94286163D01*
X145390102Y-94075802D01*
X145463065Y-93851247D01*
X145500000Y-93618052D01*
X145500000Y-93381947D01*
X145463065Y-93148752D01*
X145390102Y-92924197D01*
X145282914Y-92713828D01*
X145222658Y-92630894D01*
X145222658Y-92630893D01*
X144482962Y-93370590D01*
X144465925Y-93307007D01*
X144400099Y-93192993D01*
X144307007Y-93099901D01*
X144192993Y-93034075D01*
X144129409Y-93017037D01*
X144869105Y-92277340D01*
X144869104Y-92277338D01*
X144786174Y-92217087D01*
X144575802Y-92109897D01*
X144351247Y-92036934D01*
X144351248Y-92036934D01*
X144118052Y-92000000D01*
X143881948Y-92000000D01*
X143648752Y-92036934D01*
X143424197Y-92109897D01*
X143213830Y-92217084D01*
X143130894Y-92277340D01*
X143870591Y-93017037D01*
X143807007Y-93034075D01*
X143692993Y-93099901D01*
X143599901Y-93192993D01*
X143534075Y-93307007D01*
X143517037Y-93370590D01*
X142777340Y-92630894D01*
X142717084Y-92713830D01*
X142609897Y-92924197D01*
X142536934Y-93148752D01*
X142500000Y-93381947D01*
X139000500Y-93381947D01*
X139000500Y-89974758D01*
X139020185Y-89907719D01*
X139072989Y-89861964D01*
X139142147Y-89852020D01*
X139205703Y-89881045D01*
X139212181Y-89887077D01*
X139355213Y-90030109D01*
X139527179Y-90155048D01*
X139527181Y-90155049D01*
X139527184Y-90155051D01*
X139716588Y-90251557D01*
X139918757Y-90317246D01*
X140128713Y-90350500D01*
X140128714Y-90350500D01*
X140341286Y-90350500D01*
X140341287Y-90350500D01*
X140551243Y-90317246D01*
X140753412Y-90251557D01*
X140942816Y-90155051D01*
X141029478Y-90092088D01*
X141114784Y-90030110D01*
X141114784Y-90030109D01*
X141114792Y-90030104D01*
X141228717Y-89916178D01*
X141290036Y-89882696D01*
X141359728Y-89887680D01*
X141415662Y-89929551D01*
X141432577Y-89960528D01*
X141481646Y-90092088D01*
X141481649Y-90092093D01*
X141567809Y-90207187D01*
X141567812Y-90207190D01*
X141682906Y-90293350D01*
X141682913Y-90293354D01*
X141817620Y-90343596D01*
X141817627Y-90343598D01*
X141877155Y-90349999D01*
X141877172Y-90350000D01*
X142525000Y-90350000D01*
X142525000Y-89433012D01*
X142582007Y-89465925D01*
X142709174Y-89500000D01*
X142840826Y-89500000D01*
X142967993Y-89465925D01*
X143025000Y-89433012D01*
X143025000Y-90350000D01*
X143672828Y-90350000D01*
X143672844Y-90349999D01*
X143732372Y-90343598D01*
X143732379Y-90343596D01*
X143867086Y-90293354D01*
X143867093Y-90293350D01*
X143982187Y-90207190D01*
X143982190Y-90207187D01*
X144068350Y-90092093D01*
X144068354Y-90092086D01*
X144118596Y-89957379D01*
X144118598Y-89957372D01*
X144124999Y-89897844D01*
X144125000Y-89897827D01*
X144125000Y-89397648D01*
X147849500Y-89397648D01*
X147849500Y-89602351D01*
X147881522Y-89804534D01*
X147944781Y-89999223D01*
X148008691Y-90124653D01*
X148024180Y-90155051D01*
X148037715Y-90181613D01*
X148158028Y-90347213D01*
X148302786Y-90491971D01*
X148457749Y-90604556D01*
X148468390Y-90612287D01*
X148584607Y-90671503D01*
X148650776Y-90705218D01*
X148650778Y-90705218D01*
X148650781Y-90705220D01*
X148755137Y-90739127D01*
X148845465Y-90768477D01*
X148946557Y-90784488D01*
X149047648Y-90800500D01*
X149047649Y-90800500D01*
X149252351Y-90800500D01*
X149252352Y-90800500D01*
X149454534Y-90768477D01*
X149649219Y-90705220D01*
X149831610Y-90612287D01*
X149924590Y-90544732D01*
X149997213Y-90491971D01*
X149997215Y-90491968D01*
X149997219Y-90491966D01*
X150141966Y-90347219D01*
X150141968Y-90347215D01*
X150141971Y-90347213D01*
X150243704Y-90207187D01*
X150262287Y-90181610D01*
X150355220Y-89999219D01*
X150418477Y-89804534D01*
X150450500Y-89602352D01*
X150450500Y-89397648D01*
X160549500Y-89397648D01*
X160549500Y-89602351D01*
X160581522Y-89804534D01*
X160644781Y-89999223D01*
X160708691Y-90124653D01*
X160724180Y-90155051D01*
X160737715Y-90181613D01*
X160858028Y-90347213D01*
X161002786Y-90491971D01*
X161157749Y-90604556D01*
X161168390Y-90612287D01*
X161284607Y-90671503D01*
X161350776Y-90705218D01*
X161350778Y-90705218D01*
X161350781Y-90705220D01*
X161455137Y-90739127D01*
X161545465Y-90768477D01*
X161646557Y-90784488D01*
X161747648Y-90800500D01*
X161747649Y-90800500D01*
X161952351Y-90800500D01*
X161952352Y-90800500D01*
X162154534Y-90768477D01*
X162349219Y-90705220D01*
X162531610Y-90612287D01*
X162624590Y-90544732D01*
X162697213Y-90491971D01*
X162697215Y-90491968D01*
X162697219Y-90491966D01*
X162841966Y-90347219D01*
X162841968Y-90347215D01*
X162841971Y-90347213D01*
X162943704Y-90207187D01*
X162962287Y-90181610D01*
X163055220Y-89999219D01*
X163118477Y-89804534D01*
X163150500Y-89602352D01*
X163150500Y-89397648D01*
X163136144Y-89307007D01*
X163118477Y-89195465D01*
X163055218Y-89000776D01*
X163000666Y-88893713D01*
X162962287Y-88818390D01*
X162954017Y-88807007D01*
X162841971Y-88652786D01*
X162697213Y-88508028D01*
X162531613Y-88387715D01*
X162531612Y-88387714D01*
X162531610Y-88387713D01*
X162474653Y-88358691D01*
X162349223Y-88294781D01*
X162154534Y-88231522D01*
X161979995Y-88203878D01*
X161952352Y-88199500D01*
X161747648Y-88199500D01*
X161723329Y-88203351D01*
X161545465Y-88231522D01*
X161350776Y-88294781D01*
X161168386Y-88387715D01*
X161002786Y-88508028D01*
X160858028Y-88652786D01*
X160737715Y-88818386D01*
X160644781Y-89000776D01*
X160581522Y-89195465D01*
X160549500Y-89397648D01*
X150450500Y-89397648D01*
X150436144Y-89307007D01*
X150418477Y-89195465D01*
X150355218Y-89000776D01*
X150300666Y-88893713D01*
X150262287Y-88818390D01*
X150254017Y-88807007D01*
X150141971Y-88652786D01*
X149997213Y-88508028D01*
X149831613Y-88387715D01*
X149831612Y-88387714D01*
X149831610Y-88387713D01*
X149774653Y-88358691D01*
X149649223Y-88294781D01*
X149454534Y-88231522D01*
X149279995Y-88203878D01*
X149252352Y-88199500D01*
X149047648Y-88199500D01*
X149023329Y-88203351D01*
X148845465Y-88231522D01*
X148650776Y-88294781D01*
X148468386Y-88387715D01*
X148302786Y-88508028D01*
X148158028Y-88652786D01*
X148037715Y-88818386D01*
X147944781Y-89000776D01*
X147881522Y-89195465D01*
X147849500Y-89397648D01*
X144125000Y-89397648D01*
X144125000Y-89250000D01*
X143208012Y-89250000D01*
X143240925Y-89192993D01*
X143275000Y-89065826D01*
X143275000Y-88934174D01*
X143240925Y-88807007D01*
X143208012Y-88750000D01*
X144125000Y-88750000D01*
X144125000Y-88102172D01*
X144124999Y-88102155D01*
X144118598Y-88042627D01*
X144118596Y-88042620D01*
X144068354Y-87907913D01*
X144068350Y-87907906D01*
X143982190Y-87792812D01*
X143982187Y-87792809D01*
X143867093Y-87706649D01*
X143867086Y-87706645D01*
X143732379Y-87656403D01*
X143732372Y-87656401D01*
X143672844Y-87650000D01*
X143025000Y-87650000D01*
X143025000Y-88566988D01*
X142967993Y-88534075D01*
X142840826Y-88500000D01*
X142709174Y-88500000D01*
X142582007Y-88534075D01*
X142525000Y-88566988D01*
X142525000Y-87650000D01*
X141877155Y-87650000D01*
X141817627Y-87656401D01*
X141817620Y-87656403D01*
X141682913Y-87706645D01*
X141682906Y-87706649D01*
X141567812Y-87792809D01*
X141567809Y-87792812D01*
X141481649Y-87907906D01*
X141481646Y-87907912D01*
X141432577Y-88039471D01*
X141390705Y-88095404D01*
X141325241Y-88119821D01*
X141256968Y-88104969D01*
X141228714Y-88083818D01*
X141114786Y-87969890D01*
X140942820Y-87844951D01*
X140753414Y-87748444D01*
X140753413Y-87748443D01*
X140753412Y-87748443D01*
X140551243Y-87682754D01*
X140551241Y-87682753D01*
X140551240Y-87682753D01*
X140389957Y-87657208D01*
X140341287Y-87649500D01*
X140128713Y-87649500D01*
X140080042Y-87657208D01*
X139918760Y-87682753D01*
X139716585Y-87748444D01*
X139527179Y-87844951D01*
X139355213Y-87969890D01*
X139355209Y-87969894D01*
X139212181Y-88112923D01*
X139150858Y-88146408D01*
X139081166Y-88141424D01*
X139025233Y-88099552D01*
X139000816Y-88034088D01*
X139000500Y-88025242D01*
X139000500Y-86044500D01*
X139020185Y-85977461D01*
X139072989Y-85931706D01*
X139124500Y-85920500D01*
X164875500Y-85920500D01*
X164942539Y-85940185D01*
G37*
%TD.AperFunction*%
%TD*%
M02*
