%TF.GenerationSoftware,KiCad,Pcbnew,9.99.0-4961-ge71b061082*%
%TF.CreationDate,2026-01-22T07:13:39+05:30*%
%TF.ProjectId,TOY,544f592e-6b69-4636-9164-5f7063625858,rev?*%
%TF.SameCoordinates,Original*%
%TF.FileFunction,Legend,Top*%
%TF.FilePolarity,Positive*%
%FSLAX46Y46*%
G04 Gerber Fmt 4.6, Leading zero omitted, Abs format (unit mm)*
G04 Created by KiCad (PCBNEW 9.99.0-4961-ge71b061082) date 2026-01-22 07:13:39*
%MOMM*%
%LPD*%
G01*
G04 APERTURE LIST*
%ADD10C,0.150000*%
%ADD11C,0.120000*%
G04 APERTURE END LIST*
D10*
X155285714Y-92674819D02*
X154714286Y-92674819D01*
X155000000Y-92674819D02*
X155000000Y-91674819D01*
X155000000Y-91674819D02*
X154904762Y-91817676D01*
X154904762Y-91817676D02*
X154809524Y-91912914D01*
X154809524Y-91912914D02*
X154714286Y-91960533D01*
X155714286Y-92674819D02*
X155714286Y-91674819D01*
X156285714Y-92674819D02*
X155857143Y-92103390D01*
X156285714Y-91674819D02*
X155714286Y-92246247D01*
X152500000Y-113609819D02*
X152690476Y-113609819D01*
X152690476Y-113609819D02*
X152785714Y-113657438D01*
X152785714Y-113657438D02*
X152880952Y-113752676D01*
X152880952Y-113752676D02*
X152928571Y-113943152D01*
X152928571Y-113943152D02*
X152928571Y-114276485D01*
X152928571Y-114276485D02*
X152880952Y-114466961D01*
X152880952Y-114466961D02*
X152785714Y-114562200D01*
X152785714Y-114562200D02*
X152690476Y-114609819D01*
X152690476Y-114609819D02*
X152500000Y-114609819D01*
X152500000Y-114609819D02*
X152404762Y-114562200D01*
X152404762Y-114562200D02*
X152309524Y-114466961D01*
X152309524Y-114466961D02*
X152261905Y-114276485D01*
X152261905Y-114276485D02*
X152261905Y-113943152D01*
X152261905Y-113943152D02*
X152309524Y-113752676D01*
X152309524Y-113752676D02*
X152404762Y-113657438D01*
X152404762Y-113657438D02*
X152500000Y-113609819D01*
X153357143Y-113609819D02*
X153357143Y-114419342D01*
X153357143Y-114419342D02*
X153404762Y-114514580D01*
X153404762Y-114514580D02*
X153452381Y-114562200D01*
X153452381Y-114562200D02*
X153547619Y-114609819D01*
X153547619Y-114609819D02*
X153738095Y-114609819D01*
X153738095Y-114609819D02*
X153833333Y-114562200D01*
X153833333Y-114562200D02*
X153880952Y-114514580D01*
X153880952Y-114514580D02*
X153928571Y-114419342D01*
X153928571Y-114419342D02*
X153928571Y-113609819D01*
X154261905Y-113609819D02*
X154833333Y-113609819D01*
X154547619Y-114609819D02*
X154547619Y-113609819D01*
X145086009Y-91500000D02*
X145133628Y-91357143D01*
X145133628Y-91357143D02*
X145181247Y-91309524D01*
X145181247Y-91309524D02*
X145276485Y-91261905D01*
X145276485Y-91261905D02*
X145419342Y-91261905D01*
X145419342Y-91261905D02*
X145514580Y-91309524D01*
X145514580Y-91309524D02*
X145562200Y-91357143D01*
X145562200Y-91357143D02*
X145609819Y-91452381D01*
X145609819Y-91452381D02*
X145609819Y-91833333D01*
X145609819Y-91833333D02*
X144609819Y-91833333D01*
X144609819Y-91833333D02*
X144609819Y-91500000D01*
X144609819Y-91500000D02*
X144657438Y-91404762D01*
X144657438Y-91404762D02*
X144705057Y-91357143D01*
X144705057Y-91357143D02*
X144800295Y-91309524D01*
X144800295Y-91309524D02*
X144895533Y-91309524D01*
X144895533Y-91309524D02*
X144990771Y-91357143D01*
X144990771Y-91357143D02*
X145038390Y-91404762D01*
X145038390Y-91404762D02*
X145086009Y-91500000D01*
X145086009Y-91500000D02*
X145086009Y-91833333D01*
X145324104Y-90880952D02*
X145324104Y-90404762D01*
X145609819Y-90976190D02*
X144609819Y-90642857D01*
X144609819Y-90642857D02*
X145609819Y-90309524D01*
X144609819Y-90119047D02*
X144609819Y-89547619D01*
X145609819Y-89833333D02*
X144609819Y-89833333D01*
X144609819Y-89357142D02*
X144609819Y-88785714D01*
X145609819Y-89071428D02*
X144609819Y-89071428D01*
X145086009Y-88452380D02*
X145086009Y-88119047D01*
X145609819Y-87976190D02*
X145609819Y-88452380D01*
X145609819Y-88452380D02*
X144609819Y-88452380D01*
X144609819Y-88452380D02*
X144609819Y-87976190D01*
X145609819Y-86976190D02*
X145133628Y-87309523D01*
X145609819Y-87547618D02*
X144609819Y-87547618D01*
X144609819Y-87547618D02*
X144609819Y-87166666D01*
X144609819Y-87166666D02*
X144657438Y-87071428D01*
X144657438Y-87071428D02*
X144705057Y-87023809D01*
X144705057Y-87023809D02*
X144800295Y-86976190D01*
X144800295Y-86976190D02*
X144943152Y-86976190D01*
X144943152Y-86976190D02*
X145038390Y-87023809D01*
X145038390Y-87023809D02*
X145086009Y-87071428D01*
X145086009Y-87071428D02*
X145133628Y-87166666D01*
X145133628Y-87166666D02*
X145133628Y-87547618D01*
X145133628Y-86357142D02*
X145609819Y-86357142D01*
X144609819Y-86690475D02*
X145133628Y-86357142D01*
X145133628Y-86357142D02*
X144609819Y-86023809D01*
X159734819Y-99690476D02*
X159734819Y-100261904D01*
X159734819Y-99976190D02*
X158734819Y-99976190D01*
X158734819Y-99976190D02*
X158877676Y-100071428D01*
X158877676Y-100071428D02*
X158972914Y-100166666D01*
X158972914Y-100166666D02*
X159020533Y-100261904D01*
X158734819Y-99071428D02*
X158734819Y-98976190D01*
X158734819Y-98976190D02*
X158782438Y-98880952D01*
X158782438Y-98880952D02*
X158830057Y-98833333D01*
X158830057Y-98833333D02*
X158925295Y-98785714D01*
X158925295Y-98785714D02*
X159115771Y-98738095D01*
X159115771Y-98738095D02*
X159353866Y-98738095D01*
X159353866Y-98738095D02*
X159544342Y-98785714D01*
X159544342Y-98785714D02*
X159639580Y-98833333D01*
X159639580Y-98833333D02*
X159687200Y-98880952D01*
X159687200Y-98880952D02*
X159734819Y-98976190D01*
X159734819Y-98976190D02*
X159734819Y-99071428D01*
X159734819Y-99071428D02*
X159687200Y-99166666D01*
X159687200Y-99166666D02*
X159639580Y-99214285D01*
X159639580Y-99214285D02*
X159544342Y-99261904D01*
X159544342Y-99261904D02*
X159353866Y-99309523D01*
X159353866Y-99309523D02*
X159115771Y-99309523D01*
X159115771Y-99309523D02*
X158925295Y-99261904D01*
X158925295Y-99261904D02*
X158830057Y-99214285D01*
X158830057Y-99214285D02*
X158782438Y-99166666D01*
X158782438Y-99166666D02*
X158734819Y-99071428D01*
X159734819Y-98309523D02*
X158734819Y-98309523D01*
X159734819Y-97738095D02*
X159163390Y-98166666D01*
X158734819Y-97738095D02*
X159306247Y-98309523D01*
X140609580Y-98666666D02*
X140657200Y-98714285D01*
X140657200Y-98714285D02*
X140704819Y-98857142D01*
X140704819Y-98857142D02*
X140704819Y-98952380D01*
X140704819Y-98952380D02*
X140657200Y-99095237D01*
X140657200Y-99095237D02*
X140561961Y-99190475D01*
X140561961Y-99190475D02*
X140466723Y-99238094D01*
X140466723Y-99238094D02*
X140276247Y-99285713D01*
X140276247Y-99285713D02*
X140133390Y-99285713D01*
X140133390Y-99285713D02*
X139942914Y-99238094D01*
X139942914Y-99238094D02*
X139847676Y-99190475D01*
X139847676Y-99190475D02*
X139752438Y-99095237D01*
X139752438Y-99095237D02*
X139704819Y-98952380D01*
X139704819Y-98952380D02*
X139704819Y-98857142D01*
X139704819Y-98857142D02*
X139752438Y-98714285D01*
X139752438Y-98714285D02*
X139800057Y-98666666D01*
X140704819Y-97714285D02*
X140704819Y-98285713D01*
X140704819Y-97999999D02*
X139704819Y-97999999D01*
X139704819Y-97999999D02*
X139847676Y-98095237D01*
X139847676Y-98095237D02*
X139942914Y-98190475D01*
X139942914Y-98190475D02*
X139990533Y-98285713D01*
X156051009Y-111857142D02*
X156098628Y-111714285D01*
X156098628Y-111714285D02*
X156146247Y-111666666D01*
X156146247Y-111666666D02*
X156241485Y-111619047D01*
X156241485Y-111619047D02*
X156384342Y-111619047D01*
X156384342Y-111619047D02*
X156479580Y-111666666D01*
X156479580Y-111666666D02*
X156527200Y-111714285D01*
X156527200Y-111714285D02*
X156574819Y-111809523D01*
X156574819Y-111809523D02*
X156574819Y-112190475D01*
X156574819Y-112190475D02*
X155574819Y-112190475D01*
X155574819Y-112190475D02*
X155574819Y-111857142D01*
X155574819Y-111857142D02*
X155622438Y-111761904D01*
X155622438Y-111761904D02*
X155670057Y-111714285D01*
X155670057Y-111714285D02*
X155765295Y-111666666D01*
X155765295Y-111666666D02*
X155860533Y-111666666D01*
X155860533Y-111666666D02*
X155955771Y-111714285D01*
X155955771Y-111714285D02*
X156003390Y-111761904D01*
X156003390Y-111761904D02*
X156051009Y-111857142D01*
X156051009Y-111857142D02*
X156051009Y-112190475D01*
X155574819Y-111190475D02*
X156384342Y-111190475D01*
X156384342Y-111190475D02*
X156479580Y-111142856D01*
X156479580Y-111142856D02*
X156527200Y-111095237D01*
X156527200Y-111095237D02*
X156574819Y-110999999D01*
X156574819Y-110999999D02*
X156574819Y-110809523D01*
X156574819Y-110809523D02*
X156527200Y-110714285D01*
X156527200Y-110714285D02*
X156479580Y-110666666D01*
X156479580Y-110666666D02*
X156384342Y-110619047D01*
X156384342Y-110619047D02*
X155574819Y-110619047D01*
X155574819Y-110238094D02*
X155574819Y-109571428D01*
X155574819Y-109571428D02*
X156574819Y-110238094D01*
X156574819Y-110238094D02*
X156574819Y-109571428D01*
X155574819Y-109285713D02*
X155574819Y-108619047D01*
X155574819Y-108619047D02*
X156574819Y-109285713D01*
X156574819Y-109285713D02*
X156574819Y-108619047D01*
X156051009Y-108238094D02*
X156051009Y-107904761D01*
X156574819Y-107761904D02*
X156574819Y-108238094D01*
X156574819Y-108238094D02*
X155574819Y-108238094D01*
X155574819Y-108238094D02*
X155574819Y-107761904D01*
X156574819Y-106761904D02*
X156098628Y-107095237D01*
X156574819Y-107333332D02*
X155574819Y-107333332D01*
X155574819Y-107333332D02*
X155574819Y-106952380D01*
X155574819Y-106952380D02*
X155622438Y-106857142D01*
X155622438Y-106857142D02*
X155670057Y-106809523D01*
X155670057Y-106809523D02*
X155765295Y-106761904D01*
X155765295Y-106761904D02*
X155908152Y-106761904D01*
X155908152Y-106761904D02*
X156003390Y-106809523D01*
X156003390Y-106809523D02*
X156051009Y-106857142D01*
X156051009Y-106857142D02*
X156098628Y-106952380D01*
X156098628Y-106952380D02*
X156098628Y-107333332D01*
X150195476Y-93504819D02*
X150195476Y-92504819D01*
X151243094Y-93409580D02*
X151195475Y-93457200D01*
X151195475Y-93457200D02*
X151052618Y-93504819D01*
X151052618Y-93504819D02*
X150957380Y-93504819D01*
X150957380Y-93504819D02*
X150814523Y-93457200D01*
X150814523Y-93457200D02*
X150719285Y-93361961D01*
X150719285Y-93361961D02*
X150671666Y-93266723D01*
X150671666Y-93266723D02*
X150624047Y-93076247D01*
X150624047Y-93076247D02*
X150624047Y-92933390D01*
X150624047Y-92933390D02*
X150671666Y-92742914D01*
X150671666Y-92742914D02*
X150719285Y-92647676D01*
X150719285Y-92647676D02*
X150814523Y-92552438D01*
X150814523Y-92552438D02*
X150957380Y-92504819D01*
X150957380Y-92504819D02*
X151052618Y-92504819D01*
X151052618Y-92504819D02*
X151195475Y-92552438D01*
X151195475Y-92552438D02*
X151243094Y-92600057D01*
X152909761Y-92504819D02*
X152433571Y-92504819D01*
X152433571Y-92504819D02*
X152385952Y-92981009D01*
X152385952Y-92981009D02*
X152433571Y-92933390D01*
X152433571Y-92933390D02*
X152528809Y-92885771D01*
X152528809Y-92885771D02*
X152766904Y-92885771D01*
X152766904Y-92885771D02*
X152862142Y-92933390D01*
X152862142Y-92933390D02*
X152909761Y-92981009D01*
X152909761Y-92981009D02*
X152957380Y-93076247D01*
X152957380Y-93076247D02*
X152957380Y-93314342D01*
X152957380Y-93314342D02*
X152909761Y-93409580D01*
X152909761Y-93409580D02*
X152862142Y-93457200D01*
X152862142Y-93457200D02*
X152766904Y-93504819D01*
X152766904Y-93504819D02*
X152528809Y-93504819D01*
X152528809Y-93504819D02*
X152433571Y-93457200D01*
X152433571Y-93457200D02*
X152385952Y-93409580D01*
X153862142Y-92504819D02*
X153385952Y-92504819D01*
X153385952Y-92504819D02*
X153338333Y-92981009D01*
X153338333Y-92981009D02*
X153385952Y-92933390D01*
X153385952Y-92933390D02*
X153481190Y-92885771D01*
X153481190Y-92885771D02*
X153719285Y-92885771D01*
X153719285Y-92885771D02*
X153814523Y-92933390D01*
X153814523Y-92933390D02*
X153862142Y-92981009D01*
X153862142Y-92981009D02*
X153909761Y-93076247D01*
X153909761Y-93076247D02*
X153909761Y-93314342D01*
X153909761Y-93314342D02*
X153862142Y-93409580D01*
X153862142Y-93409580D02*
X153814523Y-93457200D01*
X153814523Y-93457200D02*
X153719285Y-93504819D01*
X153719285Y-93504819D02*
X153481190Y-93504819D01*
X153481190Y-93504819D02*
X153385952Y-93457200D01*
X153385952Y-93457200D02*
X153338333Y-93409580D01*
X154814523Y-92504819D02*
X154338333Y-92504819D01*
X154338333Y-92504819D02*
X154290714Y-92981009D01*
X154290714Y-92981009D02*
X154338333Y-92933390D01*
X154338333Y-92933390D02*
X154433571Y-92885771D01*
X154433571Y-92885771D02*
X154671666Y-92885771D01*
X154671666Y-92885771D02*
X154766904Y-92933390D01*
X154766904Y-92933390D02*
X154814523Y-92981009D01*
X154814523Y-92981009D02*
X154862142Y-93076247D01*
X154862142Y-93076247D02*
X154862142Y-93314342D01*
X154862142Y-93314342D02*
X154814523Y-93409580D01*
X154814523Y-93409580D02*
X154766904Y-93457200D01*
X154766904Y-93457200D02*
X154671666Y-93504819D01*
X154671666Y-93504819D02*
X154433571Y-93504819D01*
X154433571Y-93504819D02*
X154338333Y-93457200D01*
X154338333Y-93457200D02*
X154290714Y-93409580D01*
X141869047Y-106204819D02*
X141297619Y-106204819D01*
X141583333Y-106204819D02*
X141583333Y-105204819D01*
X141583333Y-105204819D02*
X141488095Y-105347676D01*
X141488095Y-105347676D02*
X141392857Y-105442914D01*
X141392857Y-105442914D02*
X141297619Y-105490533D01*
X142488095Y-105204819D02*
X142583333Y-105204819D01*
X142583333Y-105204819D02*
X142678571Y-105252438D01*
X142678571Y-105252438D02*
X142726190Y-105300057D01*
X142726190Y-105300057D02*
X142773809Y-105395295D01*
X142773809Y-105395295D02*
X142821428Y-105585771D01*
X142821428Y-105585771D02*
X142821428Y-105823866D01*
X142821428Y-105823866D02*
X142773809Y-106014342D01*
X142773809Y-106014342D02*
X142726190Y-106109580D01*
X142726190Y-106109580D02*
X142678571Y-106157200D01*
X142678571Y-106157200D02*
X142583333Y-106204819D01*
X142583333Y-106204819D02*
X142488095Y-106204819D01*
X142488095Y-106204819D02*
X142392857Y-106157200D01*
X142392857Y-106157200D02*
X142345238Y-106109580D01*
X142345238Y-106109580D02*
X142297619Y-106014342D01*
X142297619Y-106014342D02*
X142250000Y-105823866D01*
X142250000Y-105823866D02*
X142250000Y-105585771D01*
X142250000Y-105585771D02*
X142297619Y-105395295D01*
X142297619Y-105395295D02*
X142345238Y-105300057D01*
X142345238Y-105300057D02*
X142392857Y-105252438D01*
X142392857Y-105252438D02*
X142488095Y-105204819D01*
X143440476Y-105204819D02*
X143535714Y-105204819D01*
X143535714Y-105204819D02*
X143630952Y-105252438D01*
X143630952Y-105252438D02*
X143678571Y-105300057D01*
X143678571Y-105300057D02*
X143726190Y-105395295D01*
X143726190Y-105395295D02*
X143773809Y-105585771D01*
X143773809Y-105585771D02*
X143773809Y-105823866D01*
X143773809Y-105823866D02*
X143726190Y-106014342D01*
X143726190Y-106014342D02*
X143678571Y-106109580D01*
X143678571Y-106109580D02*
X143630952Y-106157200D01*
X143630952Y-106157200D02*
X143535714Y-106204819D01*
X143535714Y-106204819D02*
X143440476Y-106204819D01*
X143440476Y-106204819D02*
X143345238Y-106157200D01*
X143345238Y-106157200D02*
X143297619Y-106109580D01*
X143297619Y-106109580D02*
X143250000Y-106014342D01*
X143250000Y-106014342D02*
X143202381Y-105823866D01*
X143202381Y-105823866D02*
X143202381Y-105585771D01*
X143202381Y-105585771D02*
X143250000Y-105395295D01*
X143250000Y-105395295D02*
X143297619Y-105300057D01*
X143297619Y-105300057D02*
X143345238Y-105252438D01*
X143345238Y-105252438D02*
X143440476Y-105204819D01*
X144630952Y-105538152D02*
X144630952Y-106204819D01*
X144202381Y-105538152D02*
X144202381Y-106061961D01*
X144202381Y-106061961D02*
X144250000Y-106157200D01*
X144250000Y-106157200D02*
X144345238Y-106204819D01*
X144345238Y-106204819D02*
X144488095Y-106204819D01*
X144488095Y-106204819D02*
X144583333Y-106157200D01*
X144583333Y-106157200D02*
X144630952Y-106109580D01*
X144964286Y-105538152D02*
X145345238Y-105538152D01*
X145107143Y-106204819D02*
X145107143Y-105347676D01*
X145107143Y-105347676D02*
X145154762Y-105252438D01*
X145154762Y-105252438D02*
X145250000Y-105204819D01*
X145250000Y-105204819D02*
X145345238Y-105204819D01*
X146202381Y-106204819D02*
X145630953Y-106204819D01*
X145916667Y-106204819D02*
X145916667Y-105204819D01*
X145916667Y-105204819D02*
X145821429Y-105347676D01*
X145821429Y-105347676D02*
X145726191Y-105442914D01*
X145726191Y-105442914D02*
X145630953Y-105490533D01*
%TO.C,1K*%
D11*
X150190000Y-89500000D02*
X150880000Y-89500000D01*
X160810000Y-89500000D02*
X160120000Y-89500000D01*
X150880000Y-87780000D02*
X160120000Y-87780000D01*
X160120000Y-91220000D01*
X150880000Y-91220000D01*
X150880000Y-87780000D01*
%TO.C,OUT*%
X152120000Y-110505000D02*
X152120000Y-107855000D01*
X154880000Y-107855000D02*
X152120000Y-107855000D01*
X154880000Y-110505000D02*
X152120000Y-110505000D01*
X154880000Y-110505000D02*
X154880000Y-107855000D01*
X154880000Y-111775000D02*
X154880000Y-113155000D01*
X154880000Y-113155000D02*
X153500000Y-113155000D01*
%TO.C,BATTERY*%
X138855000Y-87620000D02*
X138855000Y-90380000D01*
X141505000Y-87620000D02*
X138855000Y-87620000D01*
X141505000Y-87620000D02*
X141505000Y-90380000D01*
X141505000Y-90380000D02*
X138855000Y-90380000D01*
X142775000Y-87620000D02*
X144155000Y-87620000D01*
X144155000Y-87620000D02*
X144155000Y-89000000D01*
%TO.C,10K*%
X162000000Y-93690000D02*
X162000000Y-94380000D01*
X162000000Y-104310000D02*
X162000000Y-103620000D01*
X160280000Y-94380000D02*
X163720000Y-94380000D01*
X163720000Y-103620000D01*
X160280000Y-103620000D01*
X160280000Y-94380000D01*
%TO.C,C1*%
X141380000Y-94630000D02*
X143489000Y-94630000D01*
X141380000Y-102370000D02*
X141380000Y-94630000D01*
X143489000Y-102370000D02*
X141380000Y-102370000D01*
X144511000Y-94630000D02*
X146620000Y-94630000D01*
X146620000Y-94630000D02*
X146620000Y-102370000D01*
X146620000Y-102370000D02*
X144511000Y-102370000D01*
%TO.C,BUZZER*%
X157120000Y-110880000D02*
X157120000Y-109500000D01*
X158500000Y-110880000D02*
X157120000Y-110880000D01*
X159770000Y-108120000D02*
X162420000Y-108120000D01*
X159770000Y-110880000D02*
X159770000Y-108120000D01*
X159770000Y-110880000D02*
X162420000Y-110880000D01*
X162420000Y-110880000D02*
X162420000Y-108120000D01*
%TO.C,IC 555*%
X149855000Y-94050000D02*
X149855000Y-104330000D01*
X149855000Y-104330000D02*
X155155000Y-104330000D01*
X151505000Y-94050000D02*
X149855000Y-94050000D01*
X155155000Y-94050000D02*
X153505000Y-94050000D01*
X155155000Y-104330000D02*
X155155000Y-94050000D01*
X153505000Y-94050000D02*
G75*
G02*
X151505000Y-94050000I-1000000J0D01*
G01*
%TO.C,100uf1*%
X139340302Y-108685000D02*
X140140302Y-108685000D01*
X139740302Y-108285000D02*
X139740302Y-109085000D01*
X143750000Y-106920000D02*
X143750000Y-115080000D01*
X143790000Y-106920000D02*
X143790000Y-115080000D01*
X143830000Y-106921000D02*
X143830000Y-115079000D01*
X143870000Y-106922000D02*
X143870000Y-115078000D01*
X143910000Y-106923000D02*
X143910000Y-115077000D01*
X143950000Y-106925000D02*
X143950000Y-115075000D01*
X143990000Y-106927000D02*
X143990000Y-109960000D01*
X143990000Y-112040000D02*
X143990000Y-115073000D01*
X144030000Y-106930000D02*
X144030000Y-109960000D01*
X144030000Y-112040000D02*
X144030000Y-115070000D01*
X144070000Y-106932000D02*
X144070000Y-109960000D01*
X144070000Y-112040000D02*
X144070000Y-115068000D01*
X144110000Y-106936000D02*
X144110000Y-109960000D01*
X144110000Y-112040000D02*
X144110000Y-115064000D01*
X144150000Y-106939000D02*
X144150000Y-109960000D01*
X144150000Y-112040000D02*
X144150000Y-115061000D01*
X144190000Y-106944000D02*
X144190000Y-109960000D01*
X144190000Y-112040000D02*
X144190000Y-115056000D01*
X144230000Y-106948000D02*
X144230000Y-109960000D01*
X144230000Y-112040000D02*
X144230000Y-115052000D01*
X144270000Y-106953000D02*
X144270000Y-109960000D01*
X144270000Y-112040000D02*
X144270000Y-115047000D01*
X144310000Y-106958000D02*
X144310000Y-109960000D01*
X144310000Y-112040000D02*
X144310000Y-115042000D01*
X144350000Y-106964000D02*
X144350000Y-109960000D01*
X144350000Y-112040000D02*
X144350000Y-115036000D01*
X144390000Y-106970000D02*
X144390000Y-109960000D01*
X144390000Y-112040000D02*
X144390000Y-115030000D01*
X144430000Y-106977000D02*
X144430000Y-109960000D01*
X144430000Y-112040000D02*
X144430000Y-115023000D01*
X144470000Y-106983000D02*
X144470000Y-109960000D01*
X144470000Y-112040000D02*
X144470000Y-115017000D01*
X144510000Y-106991000D02*
X144510000Y-109960000D01*
X144510000Y-112040000D02*
X144510000Y-115009000D01*
X144550000Y-106998000D02*
X144550000Y-109960000D01*
X144550000Y-112040000D02*
X144550000Y-115002000D01*
X144590000Y-107007000D02*
X144590000Y-109960000D01*
X144590000Y-112040000D02*
X144590000Y-114993000D01*
X144630000Y-107015000D02*
X144630000Y-109960000D01*
X144630000Y-112040000D02*
X144630000Y-114985000D01*
X144670000Y-107024000D02*
X144670000Y-109960000D01*
X144670000Y-112040000D02*
X144670000Y-114976000D01*
X144710000Y-107033000D02*
X144710000Y-109960000D01*
X144710000Y-112040000D02*
X144710000Y-114967000D01*
X144750000Y-107043000D02*
X144750000Y-109960000D01*
X144750000Y-112040000D02*
X144750000Y-114957000D01*
X144790000Y-107053000D02*
X144790000Y-109960000D01*
X144790000Y-112040000D02*
X144790000Y-114947000D01*
X144830000Y-107064000D02*
X144830000Y-109960000D01*
X144830000Y-112040000D02*
X144830000Y-114936000D01*
X144870000Y-107075000D02*
X144870000Y-109960000D01*
X144870000Y-112040000D02*
X144870000Y-114925000D01*
X144910000Y-107087000D02*
X144910000Y-109960000D01*
X144910000Y-112040000D02*
X144910000Y-114913000D01*
X144950000Y-107099000D02*
X144950000Y-109960000D01*
X144950000Y-112040000D02*
X144950000Y-114901000D01*
X144990000Y-107111000D02*
X144990000Y-109960000D01*
X144990000Y-112040000D02*
X144990000Y-114889000D01*
X145030000Y-107124000D02*
X145030000Y-109960000D01*
X145030000Y-112040000D02*
X145030000Y-114876000D01*
X145070000Y-107137000D02*
X145070000Y-109960000D01*
X145070000Y-112040000D02*
X145070000Y-114863000D01*
X145110000Y-107151000D02*
X145110000Y-109960000D01*
X145110000Y-112040000D02*
X145110000Y-114849000D01*
X145150000Y-107165000D02*
X145150000Y-109960000D01*
X145150000Y-112040000D02*
X145150000Y-114835000D01*
X145190000Y-107180000D02*
X145190000Y-109960000D01*
X145190000Y-112040000D02*
X145190000Y-114820000D01*
X145230000Y-107195000D02*
X145230000Y-109960000D01*
X145230000Y-112040000D02*
X145230000Y-114805000D01*
X145270000Y-107211000D02*
X145270000Y-109960000D01*
X145270000Y-112040000D02*
X145270000Y-114789000D01*
X145310000Y-107227000D02*
X145310000Y-109960000D01*
X145310000Y-112040000D02*
X145310000Y-114773000D01*
X145350000Y-107243000D02*
X145350000Y-109960000D01*
X145350000Y-112040000D02*
X145350000Y-114757000D01*
X145390000Y-107260000D02*
X145390000Y-109960000D01*
X145390000Y-112040000D02*
X145390000Y-114740000D01*
X145430000Y-107278000D02*
X145430000Y-109960000D01*
X145430000Y-112040000D02*
X145430000Y-114722000D01*
X145470000Y-107296000D02*
X145470000Y-109960000D01*
X145470000Y-112040000D02*
X145470000Y-114704000D01*
X145510000Y-107315000D02*
X145510000Y-109960000D01*
X145510000Y-112040000D02*
X145510000Y-114685000D01*
X145550000Y-107334000D02*
X145550000Y-109960000D01*
X145550000Y-112040000D02*
X145550000Y-114666000D01*
X145590000Y-107354000D02*
X145590000Y-109960000D01*
X145590000Y-112040000D02*
X145590000Y-114646000D01*
X145630000Y-107374000D02*
X145630000Y-109960000D01*
X145630000Y-112040000D02*
X145630000Y-114626000D01*
X145670000Y-107395000D02*
X145670000Y-109960000D01*
X145670000Y-112040000D02*
X145670000Y-114605000D01*
X145710000Y-107416000D02*
X145710000Y-109960000D01*
X145710000Y-112040000D02*
X145710000Y-114584000D01*
X145750000Y-107438000D02*
X145750000Y-109960000D01*
X145750000Y-112040000D02*
X145750000Y-114562000D01*
X145790000Y-107461000D02*
X145790000Y-109960000D01*
X145790000Y-112040000D02*
X145790000Y-114539000D01*
X145830000Y-107484000D02*
X145830000Y-109960000D01*
X145830000Y-112040000D02*
X145830000Y-114516000D01*
X145870000Y-107507000D02*
X145870000Y-109960000D01*
X145870000Y-112040000D02*
X145870000Y-114493000D01*
X145910000Y-107532000D02*
X145910000Y-109960000D01*
X145910000Y-112040000D02*
X145910000Y-114468000D01*
X145950000Y-107557000D02*
X145950000Y-109960000D01*
X145950000Y-112040000D02*
X145950000Y-114443000D01*
X145990000Y-107582000D02*
X145990000Y-109960000D01*
X145990000Y-112040000D02*
X145990000Y-114418000D01*
X146030000Y-107608000D02*
X146030000Y-109960000D01*
X146030000Y-112040000D02*
X146030000Y-114392000D01*
X146070000Y-107635000D02*
X146070000Y-114365000D01*
X146110000Y-107663000D02*
X146110000Y-114337000D01*
X146150000Y-107691000D02*
X146150000Y-114309000D01*
X146190000Y-107720000D02*
X146190000Y-114280000D01*
X146230000Y-107750000D02*
X146230000Y-114250000D01*
X146270000Y-107781000D02*
X146270000Y-114219000D01*
X146310000Y-107812000D02*
X146310000Y-114188000D01*
X146350000Y-107844000D02*
X146350000Y-114156000D01*
X146390000Y-107877000D02*
X146390000Y-114123000D01*
X146430000Y-107911000D02*
X146430000Y-114089000D01*
X146470000Y-107945000D02*
X146470000Y-114055000D01*
X146510000Y-107981000D02*
X146510000Y-114019000D01*
X146550000Y-108018000D02*
X146550000Y-113982000D01*
X146590000Y-108055000D02*
X146590000Y-113945000D01*
X146630000Y-108094000D02*
X146630000Y-113906000D01*
X146670000Y-108133000D02*
X146670000Y-113867000D01*
X146710000Y-108174000D02*
X146710000Y-113826000D01*
X146750000Y-108216000D02*
X146750000Y-113784000D01*
X146790000Y-108259000D02*
X146790000Y-113741000D01*
X146830000Y-108304000D02*
X146830000Y-113696000D01*
X146870000Y-108349000D02*
X146870000Y-113651000D01*
X146910000Y-108396000D02*
X146910000Y-113604000D01*
X146950000Y-108445000D02*
X146950000Y-113555000D01*
X146990000Y-108495000D02*
X146990000Y-113505000D01*
X147030000Y-108547000D02*
X147030000Y-113453000D01*
X147070000Y-108600000D02*
X147070000Y-113400000D01*
X147110000Y-108656000D02*
X147110000Y-113344000D01*
X147150000Y-108713000D02*
X147150000Y-113287000D01*
X147190000Y-108773000D02*
X147190000Y-113227000D01*
X147230000Y-108835000D02*
X147230000Y-113165000D01*
X147270000Y-108899000D02*
X147270000Y-113101000D01*
X147310000Y-108966000D02*
X147310000Y-113034000D01*
X147350000Y-109036000D02*
X147350000Y-112964000D01*
X147390000Y-109110000D02*
X147390000Y-112890000D01*
X147430000Y-109187000D02*
X147430000Y-112813000D01*
X147470000Y-109269000D02*
X147470000Y-112731000D01*
X147510000Y-109356000D02*
X147510000Y-112644000D01*
X147550000Y-109448000D02*
X147550000Y-112552000D01*
X147590000Y-109547000D02*
X147590000Y-112453000D01*
X147630000Y-109654000D02*
X147630000Y-112346000D01*
X147670000Y-109772000D02*
X147670000Y-112228000D01*
X147710000Y-109903000D02*
X147710000Y-112097000D01*
X147750000Y-110053000D02*
X147750000Y-111947000D01*
X147790000Y-110232000D02*
X147790000Y-111768000D01*
X147830000Y-110467000D02*
X147830000Y-111533000D01*
X147870000Y-111000000D02*
G75*
G02*
X139630000Y-111000000I-4120000J0D01*
G01*
X139630000Y-111000000D02*
G75*
G02*
X147870000Y-111000000I4120000J0D01*
G01*
%TD*%
M02*
